<svg width="512" height="512" viewBox="0 0 512 512" fill="none" xmlns="http://www.w3.org/2000/svg">
<rect width="512" height="512" fill="white"/>
<path fill-rule="evenodd" clip-rule="evenodd" d="M192.644 110.875C181.831 110.875 174.419 110.875 167.804 112.671C160.958 114.549 154.584 117.847 149.095 122.35C143.606 126.853 139.126 132.46 135.944 138.807C132.88 144.908 131.435 152.185 129.316 162.796L120.946 204.619C119.464 211.951 119.607 219.518 121.366 226.788C123.124 234.059 126.456 240.855 131.125 246.698V283.756C131.125 308.569 131.125 328.225 133.19 343.602C135.323 359.424 139.805 372.235 149.903 382.346C160.001 392.444 172.813 396.927 188.648 399.06C204.025 401.125 223.681 401.125 248.48 401.125H263.506C288.319 401.125 307.975 401.125 323.352 399.06C339.174 396.927 351.985 392.444 362.096 382.346C372.194 372.235 376.677 359.424 378.81 343.602C380.875 328.212 380.875 308.569 380.875 283.756V246.712C385.544 240.866 388.874 234.067 390.63 226.794C392.387 219.521 392.527 211.952 391.041 204.619L382.67 162.796C380.564 152.185 379.106 144.908 376.055 138.807C372.873 132.458 368.39 126.851 362.899 122.348C357.408 117.845 351.031 114.548 344.182 112.671C337.58 110.875 330.169 110.875 319.342 110.875H192.644ZM340.618 266.125C347.489 266.137 354.293 264.769 360.625 262.102V283C360.625 308.744 360.598 327.037 358.735 340.915C356.913 354.483 353.484 362.313 347.773 368.023C342.063 373.734 334.233 377.163 320.638 378.985C313.746 379.831 306.817 380.345 299.875 380.524V343.318C299.875 337.378 299.875 332.248 299.497 328.063C299.092 323.608 298.201 319.207 295.798 315.062C293.135 310.444 289.303 306.607 284.688 303.938C280.543 301.549 276.142 300.658 271.687 300.253C267.502 299.875 262.372 299.875 256.432 299.875H255.555C249.615 299.875 244.498 299.875 240.299 300.253C235.844 300.658 231.457 301.549 227.312 303.938C222.692 306.605 218.855 310.442 216.188 315.062C213.799 319.207 212.908 323.608 212.503 328.049C212.125 332.261 212.125 337.378 212.125 343.304V380.524C205.174 380.346 198.236 379.832 191.335 378.985C177.767 377.163 169.937 373.734 164.227 368.023C158.516 362.313 155.087 354.482 153.265 340.901C151.388 327.037 151.375 308.744 151.375 283V262.102C162.164 266.652 174.183 267.385 185.445 264.179C196.707 260.974 206.538 254.021 213.313 244.471C218.211 251.196 224.634 256.665 232.054 260.429C239.474 264.193 247.68 266.145 256 266.125C264.32 266.145 272.526 264.193 279.946 260.429C287.366 256.665 293.789 251.196 298.687 244.471C303.433 251.173 309.718 256.638 317.015 260.406C324.311 264.174 332.406 266.135 340.618 266.125ZM232.375 380.848C237.613 380.866 243.238 380.875 249.25 380.875H262.75C268.762 380.875 274.387 380.866 279.625 380.848V343.75C279.625 337.256 279.611 333.058 279.328 329.885C279.058 326.848 278.586 325.741 278.262 325.188C277.374 323.652 276.098 322.376 274.563 321.488C274.009 321.164 272.902 320.705 269.865 320.422C265.249 320.14 260.624 320.041 256 320.125C249.507 320.125 245.308 320.125 242.135 320.422C239.084 320.692 237.991 321.164 237.438 321.488C235.897 322.374 234.616 323.65 233.725 325.188C233.415 325.727 232.942 326.848 232.672 329.885C232.389 333.058 232.375 337.256 232.375 343.75V380.848ZM211.045 131.125H194.143C181.264 131.125 176.795 131.219 173.177 132.205C169.07 133.331 165.246 135.309 161.953 138.009C158.66 140.709 155.971 144.072 154.061 147.878C152.374 151.24 151.415 155.587 148.891 168.223L140.818 208.588C139.958 212.741 139.953 217.026 140.806 221.181C141.658 225.336 143.349 229.273 145.775 232.752C148.201 236.231 151.312 239.179 154.916 241.415C158.52 243.65 162.543 245.127 166.737 245.755C170.932 246.383 175.21 246.149 179.311 245.067C183.412 243.985 187.25 242.077 190.588 239.461C193.927 236.846 196.697 233.576 198.729 229.853C200.76 226.13 202.011 222.032 202.405 217.808L203.336 208.547L203.39 207.98L211.045 131.125ZM223.478 210.438L231.416 131.125H280.584L288.467 209.992C288.909 214.505 288.406 219.06 286.989 223.367C285.572 227.674 283.273 231.639 280.239 235.008C277.204 238.377 273.501 241.077 269.365 242.935C265.229 244.793 260.751 245.769 256.217 245.8C251.683 245.831 247.192 244.917 243.031 243.116C238.87 241.314 235.13 238.666 232.049 235.338C228.969 232.011 226.616 228.078 225.14 223.791C223.665 219.504 223.099 214.956 223.478 210.438ZM338.823 132.205C335.205 131.219 330.736 131.125 317.857 131.125H300.928L309.608 217.795C310.015 222.006 311.274 226.09 313.31 229.799C315.345 233.507 318.114 236.763 321.448 239.367C324.782 241.971 328.612 243.869 332.703 244.946C336.794 246.022 341.062 246.255 345.246 245.629C349.43 245.003 353.442 243.533 357.04 241.306C360.637 239.08 363.744 236.145 366.17 232.68C368.597 229.214 370.292 225.291 371.154 221.149C372.016 217.007 372.025 212.734 371.182 208.588L363.122 168.223C360.584 155.587 359.626 151.24 357.952 147.878C356.041 144.07 353.35 140.707 350.055 138.007C346.759 135.307 342.932 133.33 338.823 132.205Z" fill="black"/>
</svg>
